<svg xmlns="http://www.w3.org/2000/svg" xmlns:xlink="http://www.w3.org/1999/xlink" xmlns:svgjs="http://svgjs.com/svgjs" width="512" height="512" x="0" y="0" viewBox="0 0 511.999 511.999" style="enable-background:new 0 0 512 512" xml:space="preserve" class=""><g><g xmlns="http://www.w3.org/2000/svg"><path d="m361.987 0h-284.07c-10.814 0-19.613 8.799-19.613 19.614v447.358h-39.472c-7.853 0-14.241 6.389-14.241 14.241v16.544c0 7.853 6.389 14.241 14.241 14.241h474.334c7.853 0 14.241-6.389 14.241-14.241v-16.544c0-7.853-6.389-14.241-14.241-14.241h-39.472v-27.186c0-4.143-3.357-7.5-7.5-7.5s-7.5 3.357-7.5 7.5v27.186h-87.378v-87.378h19.49v23.866c0 5.256 4.275 9.531 9.53 9.531h29.336c5.256 0 9.531-4.275 9.531-9.531v-23.866h19.49v25.192c0 4.143 3.357 7.5 7.5 7.5s7.5-3.357 7.5-7.5v-26.466c0-7.569-6.157-13.727-13.727-13.727-13.401 0-23.773 0-37.463 0v-88.652c0-7.569-6.157-13.727-13.727-13.727h-7.178v-242.6c.003-10.815-8.796-19.614-19.611-19.614zm-288.683 19.614c0-2.501 2.112-4.614 4.613-4.614h284.069c2.501 0 4.614 2.113 4.614 4.614v242.602c-5.305 0-9.958 0-15.284 0v-224.431c0-4.142-3.357-7.5-7.5-7.5h-113.945c-4.143 0-7.5 3.358-7.5 7.5s3.357 7.5 7.5 7.5h106.445v216.931c-13.712 0-24.045 0-37.463 0-7.568 0-13.727 6.156-13.727 13.727v88.651h-37.463c-4.257 0-8.068 1.949-10.588 5.001-1.68 2.035-2.786 4.56-3.068 7.325-.047.461-.071.928-.071 1.402v88.651h-130.35v-421.688h91.283c4.143 0 7.5-3.358 7.5-7.5s-3.357-7.5-7.5-7.5h-98.781c-4.143 0-7.5 3.358-7.5 7.5v429.188h-15.284zm279.711 257.601v18.398h-18.397v-18.398zm-75.056 135.777h29.336c5.255 0 9.53-4.275 9.53-9.531v-23.866h19.491v87.378h-87.379v-87.378h19.49v23.866c.001 5.255 4.276 9.531 9.532 9.531zm23.866-15h-18.397v-18.397h18.397zm190.582 83.98v15.026h-472.816v-15.026zm-88.203-102.378v18.397h-18.397v-18.397zm-16.699-102.379v87.379c-11.173 0-77.972 0-87.378 0v-87.379h19.49v23.867c0 5.256 4.275 9.531 9.53 9.531h29.337c5.255 0 9.53-4.275 9.53-9.531v-23.867z" fill="#e65918" data-original="#000000" style="" class=""></path><path d="m188.725 248.628h-26.587v-18.494c0-10.814-8.799-19.613-19.613-19.613h-5.048c-10.814 0-19.613 8.799-19.613 19.613v51.988c0 10.815 8.799 19.614 19.613 19.614h5.048c10.814 0 19.613-8.799 19.613-19.614v-18.494h26.587c4.143 0 7.5-3.357 7.5-7.5s-3.358-7.5-7.5-7.5zm-41.587 0h-.475c-4.143 0-7.5 3.357-7.5 7.5s3.357 7.5 7.5 7.5h.475v18.494c0 2.501-2.112 4.614-4.613 4.614h-5.048c-2.501 0-4.613-2.113-4.613-4.614v-51.988c0-2.501 2.112-4.613 4.613-4.613h5.048c2.501 0 4.613 2.112 4.613 4.613z" fill="#e65918" data-original="#000000" style="" class=""></path></g></g></svg>