<svg xmlns="http://www.w3.org/2000/svg" xmlns:xlink="http://www.w3.org/1999/xlink" xmlns:svgjs="http://svgjs.com/svgjs" width="512" height="512" x="0" y="0" viewBox="0 0 512 512" style="enable-background:new 0 0 512 512" xml:space="preserve" class=""><g><linearGradient xmlns="http://www.w3.org/2000/svg" id="SVGID_1_" gradientUnits="userSpaceOnUse" x1="256" x2="256" y1="512" y2="0"><stop stop-opacity="1" stop-color="#e65918" offset="0"></stop><stop stop-opacity="1" stop-color="#e65918" offset="1"></stop></linearGradient><g xmlns="http://www.w3.org/2000/svg"><path d="m376 512c-37.101 0-70.479-16.248-93.391-42h-226.609c-24.813 0-45-20.187-45-45v-340c0-24.813 20.187-45 45-45h45v-25c0-8.284 6.716-15 15-15s15 6.716 15 15v25h90v-25c0-8.284 6.716-15 15-15s15 6.716 15 15v25h90v-25c0-8.284 6.716-15 15-15s15 6.716 15 15v25h45c24.813 0 45 20.187 45 45v210.427c24.594 22.842 40 55.44 40 91.573 0 68.925-56.075 125-125 125zm0-220c-52.383 0-95 42.617-95 95s42.617 95 95 95 95-42.617 95-95-42.617-95-95-95zm-335-122v255c0 8.271 6.729 15 15 15h206.8c-4.429-9.421-7.715-19.48-9.679-30h-47.121c-8.284 0-15-6.716-15-15v-60c0-8.284 6.716-15 15-15h60c1.438 0 2.828.202 4.145.58 10.478-16.638 24.771-30.648 41.637-40.79-.507-1.504-.781-3.115-.781-4.79v-60c0-8.284 6.716-15 15-15h60c8.284 0 15 6.716 15 15v49.511c10.536 2.148 20.603 5.627 30 10.251v-104.762zm180 210h30v-30h-30zm120-120h30v-30h-30zm-300-120h390v-55c0-8.271-6.729-15-15-15h-45v25c0 8.284-6.716 15-15 15s-15-6.716-15-15v-25h-90v25c0 8.284-6.716 15-15 15s-15-6.716-15-15v-25h-90v25c0 8.284-6.716 15-15 15s-15-6.716-15-15v-25h-45c-8.271 0-15 6.729-15 15zm105 270h-60c-8.284 0-15-6.716-15-15v-60c0-8.284 6.716-15 15-15h60c8.284 0 15 6.716 15 15v60c0 8.284-6.716 15-15 15zm-45-30h30v-30h-30zm275 22h-30c-8.284 0-15-6.716-15-15s6.716-15 15-15h15v-25c0-8.284 6.716-15 15-15s15 6.716 15 15v40c0 8.284-6.716 15-15 15zm-110-112h-60c-8.284 0-15-6.716-15-15v-60c0-8.284 6.716-15 15-15h60c8.284 0 15 6.716 15 15v60c0 8.284-6.716 15-15 15zm-45-30h30v-30h-30zm-75 30h-60c-8.284 0-15-6.716-15-15v-60c0-8.284 6.716-15 15-15h60c8.284 0 15 6.716 15 15v60c0 8.284-6.716 15-15 15zm-45-30h30v-30h-30z" fill="url(#SVGID_1_)" data-original="url(#SVGID_1_)" style=""></path></g></g></svg>